<svg width="19" height="19" viewBox="0 0 19 19" fill="none" xmlns="http://www.w3.org/2000/svg">
<path d="M16.8976 4.4593C16.8184 4.36445 16.7194 4.28815 16.6075 4.23579C16.4956 4.18342 16.3735 4.15627 16.25 4.15625H5.14062L4.75602 2.03633C4.72063 1.84204 4.61822 1.66632 4.46661 1.53976C4.31501 1.41321 4.12381 1.34385 3.92633 1.34375H2.1875C1.96372 1.34375 1.74911 1.43264 1.59088 1.59088C1.43264 1.74911 1.34375 1.96372 1.34375 2.1875C1.34375 2.41128 1.43264 2.62589 1.59088 2.78412C1.74911 2.94236 1.96372 3.03125 2.1875 3.03125H3.2218L4.97328 12.6641C5.02031 12.9199 5.11757 13.1639 5.25945 13.382C5.00826 13.6759 4.83704 14.0296 4.76231 14.4089C4.68759 14.7882 4.71187 15.1804 4.83283 15.5477C4.95378 15.9149 5.16732 16.2447 5.45286 16.5054C5.73839 16.7661 6.08628 16.9488 6.46297 17.0359C6.83966 17.123 7.23245 17.1116 7.60343 17.0027C7.97442 16.8939 8.3111 16.6912 8.58099 16.4144C8.85088 16.1375 9.04488 15.7958 9.14427 15.4222C9.24366 15.0485 9.2451 14.6556 9.14844 14.2812H11.5391C11.4218 14.7355 11.4494 15.2152 11.6182 15.653C11.7869 16.0908 12.0883 16.4649 12.4802 16.7229C12.872 16.981 13.3348 17.11 13.8036 17.0921C14.2725 17.0742 14.724 16.9101 15.095 16.6229C15.466 16.3356 15.7379 15.9396 15.8727 15.4902C16.0076 15.0408 15.9985 14.5605 15.8468 14.1165C15.6952 13.6725 15.4085 13.287 15.0269 13.0139C14.6453 12.7409 14.1879 12.594 13.7187 12.5938H6.91039C6.84464 12.5937 6.78099 12.5706 6.7305 12.5284C6.68002 12.4863 6.6459 12.4278 6.63406 12.3631L6.47094 11.4688H14.2883C14.7494 11.4688 15.196 11.3069 15.55 11.0113C15.904 10.7158 16.143 10.3053 16.2254 9.85156L17.0804 5.15047C17.1024 5.0289 17.0974 4.90399 17.0658 4.78456C17.0342 4.66513 16.9768 4.5541 16.8976 4.4593ZM7.53125 14.8438C7.53125 14.955 7.49826 15.0638 7.43645 15.1563C7.37464 15.2488 7.28679 15.3209 7.18401 15.3634C7.08123 15.406 6.96813 15.4171 6.85901 15.3954C6.7499 15.3737 6.64967 15.3202 6.571 15.2415C6.49233 15.1628 6.43876 15.0626 6.41706 14.9535C6.39535 14.8444 6.40649 14.7313 6.44907 14.6285C6.49164 14.5257 6.56374 14.4379 6.65624 14.376C6.74874 14.3142 6.8575 14.2812 6.96875 14.2812C7.11793 14.2812 7.26101 14.3405 7.3665 14.446C7.47199 14.5515 7.53125 14.6946 7.53125 14.8438ZM13.7187 15.4062C13.6075 15.4062 13.4987 15.3733 13.4062 15.3115C13.3137 15.2496 13.2416 15.1618 13.1991 15.059C13.1565 14.9562 13.1454 14.8431 13.1671 14.734C13.1888 14.6249 13.2423 14.5247 13.321 14.446C13.3997 14.3673 13.4999 14.3138 13.609 14.2921C13.7181 14.2704 13.8312 14.2815 13.934 14.3241C14.0368 14.3666 14.1246 14.4387 14.1865 14.5312C14.2483 14.6237 14.2812 14.7325 14.2812 14.8438C14.2812 14.9929 14.222 15.136 14.1165 15.2415C14.011 15.347 13.8679 15.4062 13.7187 15.4062ZM14.5625 9.55062C14.5507 9.61495 14.5169 9.67317 14.4669 9.71526C14.4168 9.75735 14.3537 9.78068 14.2883 9.78125H6.16437L5.44859 5.84375H15.2389L14.5625 9.55062Z" fill="white"/>
</svg>
